<?xml version="1.0" encoding="iso-8859-1"?>
<!-- Uploaded to: SVG Repo, www.svgrepo.com, Generator: SVG Repo Mixer Tools -->
<svg fill="#000000" height="800px" width="800px" version="1.1" id="Layer_1" xmlns="http://www.w3.org/2000/svg" xmlns:xlink="http://www.w3.org/1999/xlink" 
	 viewBox="0 0 512.001 512.001" xml:space="preserve">
<g>
	<g>
		<path d="M361.977,150.023c-31.879-31.877-71.449-50.907-105.849-50.907c-20.567,0-38.198,6.756-50.982,19.541
			c-1.482,1.479-2.743,3.163-3.751,4.996l-17.286,31.429l18.685,12.054l18.682,12.052l143.393,92.507l18.647,12.031l18.647,12.03
			C425.484,258.514,409.648,197.694,361.977,150.023z"/>
	</g>
</g>
<g>
	<g>
		<polygon points="256.523,357.794 235.343,344.13 158.147,294.329 139.465,282.274 120.781,270.22 100.621,306.881 
			116.952,323.211 133.28,339.542 172.457,378.719 188.788,395.05 205.119,411.381 277.702,371.459 		"/>
	</g>
</g>
<g>
	<g>
		<polygon points="342.878,310.301 321.697,296.636 200.045,218.151 181.36,206.099 162.679,194.046 142.212,231.256 
			160.893,243.311 179.578,255.365 279.514,319.838 300.693,333.503 321.871,347.165 364.054,323.965 		"/>
	</g>
</g>
<g>
	<g>
		<path d="M152.879,421.872l-0.01-0.01L90.137,359.13l-0.003-0.004l-15.679-15.679l-67.957,67.96c-8.663,8.66-8.663,22.704,0,31.366
			l62.728,62.733c4.159,4.159,9.802,6.497,15.684,6.497c5.883,0,11.523-2.336,15.681-6.497l67.961-67.96L152.879,421.872z"/>
	</g>
</g>
<g>
	<g>
		<path d="M356.747,0c-12.25,0-22.179,9.93-22.179,22.179v44.358c0,12.247,9.929,22.179,22.179,22.179
			c12.247,0,22.179-9.932,22.179-22.179V22.179C378.926,9.93,368.994,0,356.747,0z"/>
	</g>
</g>
<g>
	<g>
		<path d="M489.821,133.074h-44.358c-12.25,0-22.179,9.932-22.179,22.18c0,12.249,9.929,22.178,22.179,22.178h44.358
			c12.247,0,22.179-9.93,22.179-22.179C512,143.003,502.07,133.074,489.821,133.074z"/>
	</g>
</g>
<g>
	<g>
		<path d="M466.526,45.47c-8.66-8.66-22.704-8.66-31.366,0l-31.366,31.366c-8.663,8.662-8.663,22.705,0,31.367
			c4.329,4.331,10.007,6.497,15.681,6.497c5.675,0,11.353-2.166,15.685-6.495l31.366-31.367
			C475.189,68.175,475.189,54.133,466.526,45.47z"/>
	</g>
</g>
</svg>